<mxfile host="app.diagrams.net" modified="2024-02-06T06:18:48.648Z" agent="Mozilla/5.0 (Windows NT 10.0; Win64; x64) AppleWebKit/537.36 (KHTML, like Gecko) Chrome/119.0.0.0 Safari/537.36 Edg/119.0.0.0" etag="INxdlUiKQytmu1i5Af-u" version="22.1.20" type="device">
  <diagram name="Page-1" id="IHyBdCfNB0RTrW-PWBX2">
    <mxGraphModel dx="1338" dy="858" grid="0" gridSize="10" guides="1" tooltips="1" connect="1" arrows="1" fold="1" page="0" pageScale="1" pageWidth="850" pageHeight="1100" math="0" shadow="0">
      <root>
        <mxCell id="0" />
        <mxCell id="1" parent="0" />
        <mxCell id="hto62bo64SFIwnMWw7BM-5" value="" style="rounded=1;whiteSpace=wrap;html=1;" vertex="1" parent="1">
          <mxGeometry x="15.719999999999999" y="190" width="270" height="150" as="geometry" />
        </mxCell>
        <mxCell id="hto62bo64SFIwnMWw7BM-37" value="Emergency Call &lt;br&gt;Center" style="rounded=0;whiteSpace=wrap;html=1;fontFamily=Helvetica;fontSize=14;fillColor=#eeeeee;strokeColor=#36393d;verticalAlign=top;fontStyle=1;align=left;fontColor=#999999;spacingLeft=4;" vertex="1" parent="1">
          <mxGeometry x="355" y="270" width="585" height="360" as="geometry" />
        </mxCell>
        <mxCell id="hto62bo64SFIwnMWw7BM-27" value="" style="rounded=0;whiteSpace=wrap;html=1;fontFamily=Helvetica;fontSize=11;fontColor=#000000;fillColor=#fa6800;strokeColor=#C73500;" vertex="1" parent="1">
          <mxGeometry x="584" y="440" width="206" height="150" as="geometry" />
        </mxCell>
        <mxCell id="hto62bo64SFIwnMWw7BM-21" value="" style="rounded=0;whiteSpace=wrap;html=1;fontFamily=Helvetica;fontSize=11;fontColor=default;" vertex="1" parent="1">
          <mxGeometry x="371.5" y="445" width="143" height="86" as="geometry" />
        </mxCell>
        <mxCell id="hto62bo64SFIwnMWw7BM-1" value="Caller" style="shape=image;html=1;verticalAlign=bottom;verticalLabelPosition=top;labelBackgroundColor=#ffffff;imageAspect=0;aspect=fixed;image=https://cdn0.iconfinder.com/data/icons/google-material-design-3-0/48/ic_supervisor_account_48px-128.png;fontFamily=Helvetica;fontSize=11;fontColor=default;labelPosition=center;align=center;fontStyle=1;imageBackground=none;imageBorder=none;" vertex="1" parent="1">
          <mxGeometry x="119.5" y="190" width="70" height="70" as="geometry" />
        </mxCell>
        <mxCell id="hto62bo64SFIwnMWw7BM-3" value="Landline" style="fontColor=default;verticalAlign=top;verticalLabelPosition=bottom;labelPosition=center;align=center;html=1;outlineConnect=0;fillColor=#505050;strokeColor=none;gradientColor=none;gradientDirection=north;strokeWidth=1;shape=mxgraph.networks.phone_1;sketch=0;shadow=0;dashed=0;flipH=0;spacingBottom=0;whiteSpace=wrap;" vertex="1" parent="1">
          <mxGeometry x="120" y="266.005" width="61.43" height="43" as="geometry" />
        </mxCell>
        <mxCell id="hto62bo64SFIwnMWw7BM-4" value="Mobile" style="verticalLabelPosition=bottom;verticalAlign=top;html=1;shadow=0;dashed=0;strokeWidth=1;shape=mxgraph.android.phone2;strokeColor=none;fillColor=#505050;fontColor=default;gradientColor=none;gradientDirection=north;sketch=0;flipH=0;" vertex="1" parent="1">
          <mxGeometry x="205.45" y="262.13" width="29.1" height="56.75" as="geometry" />
        </mxCell>
        <mxCell id="hto62bo64SFIwnMWw7BM-6" value="Mobile Network" style="shape=image;html=1;verticalAlign=top;verticalLabelPosition=bottom;labelBackgroundColor=#ffffff;imageAspect=0;aspect=fixed;image=https://cdn0.iconfinder.com/data/icons/octicons/1024/radio-tower-128.png" vertex="1" parent="1">
          <mxGeometry x="190" y="365" width="60" height="60" as="geometry" />
        </mxCell>
        <mxCell id="hto62bo64SFIwnMWw7BM-7" value="VoIP Phone" style="sketch=0;pointerEvents=1;shadow=0;dashed=0;html=1;strokeColor=none;fillColor=#505050;labelPosition=center;verticalLabelPosition=bottom;verticalAlign=top;outlineConnect=0;align=center;shape=mxgraph.office.devices.phone_voip;flipH=0;" vertex="1" parent="1">
          <mxGeometry x="50" y="266.005" width="59.24" height="53" as="geometry" />
        </mxCell>
        <mxCell id="hto62bo64SFIwnMWw7BM-9" value="Internet" style="outlineConnect=0;dashed=0;verticalLabelPosition=bottom;verticalAlign=top;align=center;html=1;shape=mxgraph.aws3.internet_3;fillColor=#505050;gradientColor=none;strokeColor=none;sketch=0;shadow=0;" vertex="1" parent="1">
          <mxGeometry x="40" y="371" width="79.5" height="54" as="geometry" />
        </mxCell>
        <mxCell id="hto62bo64SFIwnMWw7BM-10" style="edgeStyle=orthogonalEdgeStyle;rounded=0;orthogonalLoop=1;jettySize=auto;html=1;exitX=0.5;exitY=0;exitDx=0;exitDy=0;entryX=0.512;entryY=1.032;entryDx=0;entryDy=0;entryPerimeter=0;endArrow=none;endFill=0;" edge="1" parent="1" source="hto62bo64SFIwnMWw7BM-6" target="hto62bo64SFIwnMWw7BM-4">
          <mxGeometry relative="1" as="geometry" />
        </mxCell>
        <mxCell id="hto62bo64SFIwnMWw7BM-11" style="edgeStyle=orthogonalEdgeStyle;shape=connector;rounded=0;orthogonalLoop=1;jettySize=auto;html=1;exitX=0.38;exitY=0.02;exitDx=0;exitDy=0;exitPerimeter=0;entryX=0.348;entryY=0.856;entryDx=0;entryDy=0;entryPerimeter=0;labelBackgroundColor=default;strokeColor=default;align=center;verticalAlign=middle;fontFamily=Helvetica;fontSize=11;fontColor=default;endArrow=none;endFill=0;" edge="1" parent="1" source="hto62bo64SFIwnMWw7BM-9" target="hto62bo64SFIwnMWw7BM-7">
          <mxGeometry relative="1" as="geometry" />
        </mxCell>
        <mxCell id="hto62bo64SFIwnMWw7BM-25" style="edgeStyle=orthogonalEdgeStyle;shape=connector;rounded=0;orthogonalLoop=1;jettySize=auto;html=1;exitX=0.875;exitY=0.5;exitDx=0;exitDy=0;exitPerimeter=0;entryX=0;entryY=0.5;entryDx=0;entryDy=0;labelBackgroundColor=default;strokeColor=default;align=center;verticalAlign=middle;fontFamily=Helvetica;fontSize=11;fontColor=default;endArrow=none;endFill=0;" edge="1" parent="1" source="hto62bo64SFIwnMWw7BM-12" target="hto62bo64SFIwnMWw7BM-22">
          <mxGeometry relative="1" as="geometry" />
        </mxCell>
        <mxCell id="hto62bo64SFIwnMWw7BM-12" value="PSTN" style="ellipse;shape=cloud;whiteSpace=wrap;html=1;align=center;fontFamily=Helvetica;fontSize=11;fontColor=default;" vertex="1" parent="1">
          <mxGeometry x="64" y="468" width="140" height="84" as="geometry" />
        </mxCell>
        <mxCell id="hto62bo64SFIwnMWw7BM-14" style="edgeStyle=orthogonalEdgeStyle;shape=connector;rounded=0;orthogonalLoop=1;jettySize=auto;html=1;exitX=0.5;exitY=1;exitDx=0;exitDy=0;exitPerimeter=0;entryX=0.625;entryY=0.2;entryDx=0;entryDy=0;entryPerimeter=0;labelBackgroundColor=default;strokeColor=default;align=center;verticalAlign=middle;fontFamily=Helvetica;fontSize=11;fontColor=default;endArrow=none;endFill=0;" edge="1" parent="1" source="hto62bo64SFIwnMWw7BM-3" target="hto62bo64SFIwnMWw7BM-12">
          <mxGeometry relative="1" as="geometry" />
        </mxCell>
        <mxCell id="hto62bo64SFIwnMWw7BM-15" style="edgeStyle=orthogonalEdgeStyle;shape=connector;rounded=0;orthogonalLoop=1;jettySize=auto;html=1;exitX=0.5;exitY=1;exitDx=0;exitDy=0;exitPerimeter=0;entryX=0.4;entryY=0.1;entryDx=0;entryDy=0;entryPerimeter=0;labelBackgroundColor=default;strokeColor=default;align=center;verticalAlign=middle;fontFamily=Helvetica;fontSize=11;fontColor=default;endArrow=none;endFill=0;" edge="1" parent="1" source="hto62bo64SFIwnMWw7BM-9" target="hto62bo64SFIwnMWw7BM-12">
          <mxGeometry relative="1" as="geometry" />
        </mxCell>
        <mxCell id="hto62bo64SFIwnMWw7BM-16" style="edgeStyle=orthogonalEdgeStyle;shape=connector;rounded=0;orthogonalLoop=1;jettySize=auto;html=1;exitX=0.5;exitY=1;exitDx=0;exitDy=0;entryX=0.811;entryY=0.2;entryDx=0;entryDy=0;entryPerimeter=0;labelBackgroundColor=default;strokeColor=default;align=center;verticalAlign=middle;fontFamily=Helvetica;fontSize=11;fontColor=default;endArrow=none;endFill=0;" edge="1" parent="1" source="hto62bo64SFIwnMWw7BM-6" target="hto62bo64SFIwnMWw7BM-12">
          <mxGeometry relative="1" as="geometry" />
        </mxCell>
        <mxCell id="hto62bo64SFIwnMWw7BM-18" value="CMS" style="rounded=1;whiteSpace=wrap;html=1;fontFamily=Helvetica;fontSize=11;fillColor=#75A15C;strokeColor=#82b366;fontColor=#FFFFFF;" vertex="1" parent="1">
          <mxGeometry x="371.5" y="531" width="144" height="22" as="geometry" />
        </mxCell>
        <mxCell id="hto62bo64SFIwnMWw7BM-31" style="shape=connector;rounded=0;orthogonalLoop=1;jettySize=auto;html=1;exitX=1.004;exitY=0.723;exitDx=0;exitDy=0;labelBackgroundColor=default;strokeColor=default;align=center;verticalAlign=middle;fontFamily=Helvetica;fontSize=11;fontColor=default;endArrow=none;endFill=0;exitPerimeter=0;entryX=0;entryY=0.451;entryDx=0;entryDy=0;entryPerimeter=0;" edge="1" parent="1" source="hto62bo64SFIwnMWw7BM-21" target="hto62bo64SFIwnMWw7BM-27">
          <mxGeometry relative="1" as="geometry">
            <mxPoint x="541" y="565.9" as="sourcePoint" />
            <mxPoint x="580" y="507" as="targetPoint" />
          </mxGeometry>
        </mxCell>
        <mxCell id="hto62bo64SFIwnMWw7BM-26" style="edgeStyle=orthogonalEdgeStyle;shape=connector;rounded=0;orthogonalLoop=1;jettySize=auto;html=1;exitX=1;exitY=0.5;exitDx=0;exitDy=0;labelBackgroundColor=default;strokeColor=default;align=center;verticalAlign=middle;fontFamily=Helvetica;fontSize=11;fontColor=default;endArrow=none;endFill=0;entryX=0;entryY=0.75;entryDx=0;entryDy=0;" edge="1" parent="1" source="hto62bo64SFIwnMWw7BM-22" target="hto62bo64SFIwnMWw7BM-21">
          <mxGeometry relative="1" as="geometry">
            <mxPoint x="397" y="566" as="targetPoint" />
          </mxGeometry>
        </mxCell>
        <mxCell id="hto62bo64SFIwnMWw7BM-32" style="edgeStyle=orthogonalEdgeStyle;shape=connector;rounded=0;orthogonalLoop=1;jettySize=auto;html=1;exitX=0.5;exitY=1;exitDx=0;exitDy=0;entryX=0.5;entryY=0;entryDx=0;entryDy=0;labelBackgroundColor=default;strokeColor=default;align=center;verticalAlign=middle;fontFamily=Helvetica;fontSize=11;fontColor=default;endArrow=none;endFill=0;" edge="1" parent="1" source="hto62bo64SFIwnMWw7BM-22" target="hto62bo64SFIwnMWw7BM-24">
          <mxGeometry relative="1" as="geometry" />
        </mxCell>
        <mxCell id="hto62bo64SFIwnMWw7BM-22" value="SIP Gateway" style="rounded=1;whiteSpace=wrap;html=1;fontFamily=Helvetica;fontSize=11;fontColor=default;" vertex="1" parent="1">
          <mxGeometry x="220" y="490" width="90" height="40" as="geometry" />
        </mxCell>
        <mxCell id="hto62bo64SFIwnMWw7BM-23" value="ACD" style="rounded=1;whiteSpace=wrap;html=1;fontFamily=Helvetica;fontSize=11;fontColor=default;flipV=1;" vertex="1" parent="1">
          <mxGeometry x="383" y="491" width="120" height="27" as="geometry" />
        </mxCell>
        <mxCell id="hto62bo64SFIwnMWw7BM-24" value="Voice Recording" style="rounded=1;whiteSpace=wrap;html=1;fontFamily=Helvetica;fontSize=11;fontColor=default;" vertex="1" parent="1">
          <mxGeometry x="220" y="540" width="90" height="30" as="geometry" />
        </mxCell>
        <mxCell id="hto62bo64SFIwnMWw7BM-28" value="AGIL ERS" style="rounded=1;whiteSpace=wrap;html=1;fontFamily=Helvetica;fontSize=11;fillColor=#fa6800;strokeColor=#C73500;fontColor=#FFFFFF;" vertex="1" parent="1">
          <mxGeometry x="584" y="590" width="206" height="22" as="geometry" />
        </mxCell>
        <mxCell id="hto62bo64SFIwnMWw7BM-29" value="Mobile APP Backend" style="rounded=1;whiteSpace=wrap;html=1;fontFamily=Helvetica;fontSize=11;fontColor=default;" vertex="1" parent="1">
          <mxGeometry x="690" y="457" width="90" height="40" as="geometry" />
        </mxCell>
        <mxCell id="hto62bo64SFIwnMWw7BM-30" value="APP Server" style="rounded=1;whiteSpace=wrap;html=1;fontFamily=Helvetica;fontSize=11;fontColor=default;" vertex="1" parent="1">
          <mxGeometry x="590" y="457" width="90" height="40" as="geometry" />
        </mxCell>
        <mxCell id="hto62bo64SFIwnMWw7BM-33" value="IVR" style="rounded=1;whiteSpace=wrap;html=1;fontFamily=Helvetica;fontSize=11;fontColor=default;flipV=1;" vertex="1" parent="1">
          <mxGeometry x="383" y="455" width="120" height="27" as="geometry" />
        </mxCell>
        <mxCell id="hto62bo64SFIwnMWw7BM-35" value="Database" style="rounded=1;whiteSpace=wrap;html=1;fontFamily=Helvetica;fontSize=11;fontColor=default;arcSize=25;spacingLeft=29;" vertex="1" parent="1">
          <mxGeometry x="590" y="535" width="123" height="45" as="geometry" />
        </mxCell>
        <mxCell id="hto62bo64SFIwnMWw7BM-34" value="" style="shape=cylinder3;whiteSpace=wrap;html=1;boundedLbl=1;backgroundOutline=1;size=6.8800048828125;fontFamily=Helvetica;fontSize=11;fontColor=default;" vertex="1" parent="1">
          <mxGeometry x="595" y="539" width="35" height="38" as="geometry" />
        </mxCell>
        <mxCell id="hto62bo64SFIwnMWw7BM-36" value="External Interface Subsystem" style="rounded=1;whiteSpace=wrap;html=1;fontFamily=Helvetica;fontSize=11;fontColor=default;" vertex="1" parent="1">
          <mxGeometry x="590" y="502.5" width="190" height="25" as="geometry" />
        </mxCell>
        <mxCell id="hto62bo64SFIwnMWw7BM-38" value="" style="rounded=1;whiteSpace=wrap;html=1;" vertex="1" parent="1">
          <mxGeometry x="556" y="300" width="80" height="110" as="geometry" />
        </mxCell>
        <mxCell id="hto62bo64SFIwnMWw7BM-39" value="Call Taker" style="shape=image;html=1;verticalAlign=bottom;verticalLabelPosition=top;labelBackgroundColor=#ffffff;imageAspect=0;aspect=fixed;image=https://cdn0.iconfinder.com/data/icons/google-material-design-3-0/48/ic_supervisor_account_48px-128.png;fontFamily=Helvetica;fontSize=11;fontColor=default;labelPosition=center;align=center;fontStyle=1;imageBackground=none;imageBorder=none;" vertex="1" parent="1">
          <mxGeometry x="561" y="295" width="70" height="70" as="geometry" />
        </mxCell>
        <mxCell id="hto62bo64SFIwnMWw7BM-40" value="" style="verticalLabelPosition=bottom;html=1;verticalAlign=top;align=center;strokeColor=none;fillColor=#00BEF2;shape=mxgraph.azure.laptop;pointerEvents=1;fontFamily=Helvetica;fontSize=11;fontColor=default;" vertex="1" parent="1">
          <mxGeometry x="571" y="376" width="50" height="30" as="geometry" />
        </mxCell>
        <mxCell id="hto62bo64SFIwnMWw7BM-41" value="" style="rounded=1;whiteSpace=wrap;html=1;" vertex="1" parent="1">
          <mxGeometry x="648.5" y="300" width="80" height="110" as="geometry" />
        </mxCell>
        <mxCell id="hto62bo64SFIwnMWw7BM-42" value="Dispatcher" style="shape=image;html=1;verticalAlign=bottom;verticalLabelPosition=top;labelBackgroundColor=#ffffff;imageAspect=0;aspect=fixed;image=https://cdn0.iconfinder.com/data/icons/google-material-design-3-0/48/ic_supervisor_account_48px-128.png;fontFamily=Helvetica;fontSize=11;fontColor=default;labelPosition=center;align=center;fontStyle=1;imageBackground=none;imageBorder=none;" vertex="1" parent="1">
          <mxGeometry x="653.5" y="295" width="70" height="70" as="geometry" />
        </mxCell>
        <mxCell id="hto62bo64SFIwnMWw7BM-43" value="" style="verticalLabelPosition=bottom;html=1;verticalAlign=top;align=center;strokeColor=#B20000;fillColor=#e51400;shape=mxgraph.azure.laptop;pointerEvents=1;fontFamily=Helvetica;fontSize=11;fontColor=#ffffff;" vertex="1" parent="1">
          <mxGeometry x="663.5" y="376" width="50" height="30" as="geometry" />
        </mxCell>
        <mxCell id="hto62bo64SFIwnMWw7BM-46" value="Mobile Responder" style="rounded=1;whiteSpace=wrap;html=1;verticalAlign=bottom;labelPosition=center;verticalLabelPosition=top;align=center;fontStyle=1;" vertex="1" parent="1">
          <mxGeometry x="680" y="126" width="260" height="119" as="geometry" />
        </mxCell>
        <mxCell id="hto62bo64SFIwnMWw7BM-47" value="" style="shape=image;html=1;verticalAlign=top;verticalLabelPosition=bottom;labelBackgroundColor=#ffffff;imageAspect=0;aspect=fixed;image=https://cdn4.iconfinder.com/data/icons/transportation-190/1000/patrol_car_automobile_car_cop_police_patrol_patrolman-128.png;fontFamily=Helvetica;fontSize=11;fontColor=default;imageBackground=none;" vertex="1" parent="1">
          <mxGeometry x="781" y="120" width="105" height="105" as="geometry" />
        </mxCell>
        <mxCell id="hto62bo64SFIwnMWw7BM-48" value="" style="shape=image;html=1;verticalAlign=top;verticalLabelPosition=bottom;labelBackgroundColor=#ffffff;imageAspect=0;aspect=fixed;image=https://cdn4.iconfinder.com/data/icons/transportation-190/1000/patrol_car_automobile_car_cop_police_patrol_patrolman-128.png;fontFamily=Helvetica;fontSize=11;fontColor=default;" vertex="1" parent="1">
          <mxGeometry x="848" y="120" width="105" height="105" as="geometry" />
        </mxCell>
        <mxCell id="hto62bo64SFIwnMWw7BM-57" style="edgeStyle=orthogonalEdgeStyle;shape=connector;rounded=0;orthogonalLoop=1;jettySize=auto;html=1;exitX=0.5;exitY=1;exitDx=0;exitDy=0;entryX=0.75;entryY=0;entryDx=0;entryDy=0;labelBackgroundColor=default;strokeColor=default;align=center;verticalAlign=middle;fontFamily=Helvetica;fontSize=11;fontColor=default;endArrow=none;endFill=0;" edge="1" parent="1" source="hto62bo64SFIwnMWw7BM-49" target="hto62bo64SFIwnMWw7BM-56">
          <mxGeometry relative="1" as="geometry" />
        </mxCell>
        <mxCell id="hto62bo64SFIwnMWw7BM-49" value="AVL Unit" style="ellipse;whiteSpace=wrap;html=1;aspect=fixed;fontFamily=Helvetica;fontSize=11;fontColor=default;" vertex="1" parent="1">
          <mxGeometry x="881" y="196" width="37" height="37" as="geometry" />
        </mxCell>
        <mxCell id="hto62bo64SFIwnMWw7BM-55" style="edgeStyle=orthogonalEdgeStyle;shape=connector;rounded=0;orthogonalLoop=1;jettySize=auto;html=1;exitX=0.5;exitY=1;exitDx=0;exitDy=0;exitPerimeter=0;entryX=0.75;entryY=0;entryDx=0;entryDy=0;labelBackgroundColor=default;strokeColor=default;align=center;verticalAlign=middle;fontFamily=Helvetica;fontSize=11;fontColor=default;endArrow=none;endFill=0;" edge="1" parent="1" source="hto62bo64SFIwnMWw7BM-50" target="hto62bo64SFIwnMWw7BM-29">
          <mxGeometry relative="1" as="geometry" />
        </mxCell>
        <mxCell id="hto62bo64SFIwnMWw7BM-50" value="" style="sketch=0;aspect=fixed;pointerEvents=1;shadow=0;dashed=0;html=1;strokeColor=none;labelPosition=center;verticalLabelPosition=bottom;verticalAlign=top;align=center;fillColor=#00188D;shape=mxgraph.azure.tablet;fontFamily=Helvetica;fontSize=11;fontColor=default;" vertex="1" parent="1">
          <mxGeometry x="817.5" y="198.01" width="50" height="37" as="geometry" />
        </mxCell>
        <mxCell id="hto62bo64SFIwnMWw7BM-51" value="" style="shape=image;html=1;verticalAlign=top;verticalLabelPosition=bottom;labelBackgroundColor=#ffffff;imageAspect=0;aspect=fixed;image=https://cdn2.iconfinder.com/data/icons/maki/100/police-128.png;fontFamily=Helvetica;fontSize=11;fontColor=default;" vertex="1" parent="1">
          <mxGeometry x="680" y="130" width="70" height="70" as="geometry" />
        </mxCell>
        <mxCell id="hto62bo64SFIwnMWw7BM-52" value="" style="shape=image;html=1;verticalAlign=top;verticalLabelPosition=bottom;labelBackgroundColor=#ffffff;imageAspect=0;aspect=fixed;image=https://cdn2.iconfinder.com/data/icons/maki/100/police-128.png;fontFamily=Helvetica;fontSize=11;fontColor=default;" vertex="1" parent="1">
          <mxGeometry x="710" y="130" width="70" height="70" as="geometry" />
        </mxCell>
        <mxCell id="hto62bo64SFIwnMWw7BM-54" style="edgeStyle=orthogonalEdgeStyle;shape=connector;rounded=0;orthogonalLoop=1;jettySize=auto;html=1;exitX=0.5;exitY=1;exitDx=0;exitDy=0;exitPerimeter=0;entryX=0.5;entryY=0;entryDx=0;entryDy=0;labelBackgroundColor=default;strokeColor=default;align=center;verticalAlign=middle;fontFamily=Helvetica;fontSize=11;fontColor=default;endArrow=none;endFill=0;" edge="1" parent="1" source="hto62bo64SFIwnMWw7BM-53" target="hto62bo64SFIwnMWw7BM-29">
          <mxGeometry relative="1" as="geometry" />
        </mxCell>
        <mxCell id="hto62bo64SFIwnMWw7BM-53" value="" style="verticalLabelPosition=bottom;html=1;verticalAlign=top;align=center;strokeColor=#2D7600;fillColor=#60a917;shape=mxgraph.azure.mobile_services;pointerEvents=1;fontFamily=Helvetica;fontSize=11;fontColor=#ffffff;" vertex="1" parent="1">
          <mxGeometry x="721.19" y="198.5" width="27.63" height="42.5" as="geometry" />
        </mxCell>
        <mxCell id="hto62bo64SFIwnMWw7BM-58" style="edgeStyle=orthogonalEdgeStyle;shape=connector;rounded=0;orthogonalLoop=1;jettySize=auto;html=1;exitX=0.5;exitY=1;exitDx=0;exitDy=0;entryX=1;entryY=0.5;entryDx=0;entryDy=0;labelBackgroundColor=default;strokeColor=default;align=center;verticalAlign=middle;fontFamily=Helvetica;fontSize=11;fontColor=default;endArrow=none;endFill=0;" edge="1" parent="1" source="hto62bo64SFIwnMWw7BM-56" target="hto62bo64SFIwnMWw7BM-36">
          <mxGeometry relative="1" as="geometry">
            <Array as="points">
              <mxPoint x="877" y="515" />
            </Array>
          </mxGeometry>
        </mxCell>
        <mxCell id="hto62bo64SFIwnMWw7BM-56" value="AVL Backend Server" style="rounded=1;whiteSpace=wrap;html=1;fontFamily=Helvetica;fontSize=11;fontColor=default;" vertex="1" parent="1">
          <mxGeometry x="832" y="457" width="90" height="40" as="geometry" />
        </mxCell>
        <mxCell id="hto62bo64SFIwnMWw7BM-61" value="" style="group" vertex="1" connectable="0" parent="1">
          <mxGeometry x="413" y="575" width="99" height="34" as="geometry" />
        </mxCell>
        <mxCell id="hto62bo64SFIwnMWw7BM-60" value="VMS" style="rounded=1;whiteSpace=wrap;html=1;fontFamily=Helvetica;fontSize=11;fontColor=default;labelPosition=center;verticalLabelPosition=middle;align=right;verticalAlign=middle;spacingRight=11;" vertex="1" parent="hto62bo64SFIwnMWw7BM-61">
          <mxGeometry width="99" height="34" as="geometry" />
        </mxCell>
        <mxCell id="hto62bo64SFIwnMWw7BM-59" value="" style="points=[[0,0.5,0],[0.19,0.02,0],[0.59,0,0],[0.985,0.02,0],[1,0.5,0],[0.985,0.98,0],[0.59,1,0],[0.19,0.98,0]];verticalLabelPosition=bottom;sketch=0;html=1;verticalAlign=top;aspect=fixed;align=center;pointerEvents=1;shape=mxgraph.cisco19.camera;fillColor=#005073;strokeColor=none;fontFamily=Helvetica;fontSize=11;fontColor=default;" vertex="1" parent="hto62bo64SFIwnMWw7BM-61">
          <mxGeometry x="4.25" y="5.75" width="40.5" height="22.5" as="geometry" />
        </mxCell>
        <mxCell id="hto62bo64SFIwnMWw7BM-62" value="GIS Data Server" style="rounded=1;whiteSpace=wrap;html=1;fontFamily=Helvetica;fontSize=11;fontColor=default;" vertex="1" parent="1">
          <mxGeometry x="832" y="541" width="90" height="40" as="geometry" />
        </mxCell>
        <mxCell id="hto62bo64SFIwnMWw7BM-63" style="edgeStyle=orthogonalEdgeStyle;shape=connector;rounded=0;orthogonalLoop=1;jettySize=auto;html=1;exitX=1;exitY=0.5;exitDx=0;exitDy=0;entryX=0;entryY=0.5;entryDx=0;entryDy=0;labelBackgroundColor=default;strokeColor=default;align=center;verticalAlign=middle;fontFamily=Helvetica;fontSize=11;fontColor=default;endArrow=none;endFill=0;" edge="1" parent="1" source="hto62bo64SFIwnMWw7BM-60" target="hto62bo64SFIwnMWw7BM-36">
          <mxGeometry relative="1" as="geometry">
            <Array as="points">
              <mxPoint x="556" y="592" />
              <mxPoint x="556" y="515" />
            </Array>
          </mxGeometry>
        </mxCell>
        <mxCell id="hto62bo64SFIwnMWw7BM-115" style="edgeStyle=orthogonalEdgeStyle;shape=connector;rounded=0;orthogonalLoop=1;jettySize=auto;html=1;exitX=1;exitY=0.5;exitDx=0;exitDy=0;exitPerimeter=0;entryX=0;entryY=0.5;entryDx=0;entryDy=0;labelBackgroundColor=default;strokeColor=#006EAF;align=center;verticalAlign=middle;fontFamily=Helvetica;fontSize=11;fontColor=default;endArrow=none;endFill=0;fillColor=#1ba1e2;strokeWidth=4;" edge="1" parent="1" source="hto62bo64SFIwnMWw7BM-108" target="hto62bo64SFIwnMWw7BM-112">
          <mxGeometry relative="1" as="geometry" />
        </mxCell>
        <mxCell id="hto62bo64SFIwnMWw7BM-108" value="" style="points=[[0,0.5,0],[0.19,0.02,0],[0.59,0,0],[0.985,0.02,0],[1,0.5,0],[0.985,0.98,0],[0.59,1,0],[0.19,0.98,0]];verticalLabelPosition=bottom;sketch=0;html=1;verticalAlign=top;aspect=fixed;align=center;pointerEvents=1;shape=mxgraph.cisco19.camera;fillColor=#005073;strokeColor=none;fontFamily=Helvetica;fontSize=11;fontColor=default;" vertex="1" parent="1">
          <mxGeometry x="32.5" y="1753.75" width="40.5" height="22.5" as="geometry" />
        </mxCell>
        <mxCell id="hto62bo64SFIwnMWw7BM-109" value="" style="points=[[0,0.5,0],[0.19,0.02,0],[0.59,0,0],[0.985,0.02,0],[1,0.5,0],[0.985,0.98,0],[0.59,1,0],[0.19,0.98,0]];verticalLabelPosition=bottom;sketch=0;html=1;verticalAlign=top;aspect=fixed;align=center;pointerEvents=1;shape=mxgraph.cisco19.camera;fillColor=#005073;strokeColor=none;fontFamily=Helvetica;fontSize=11;fontColor=default;" vertex="1" parent="1">
          <mxGeometry x="32.5" y="1804.75" width="40.5" height="22.5" as="geometry" />
        </mxCell>
        <mxCell id="hto62bo64SFIwnMWw7BM-110" value="" style="points=[[0,0.5,0],[0.19,0.02,0],[0.59,0,0],[0.985,0.02,0],[1,0.5,0],[0.985,0.98,0],[0.59,1,0],[0.19,0.98,0]];verticalLabelPosition=bottom;sketch=0;html=1;verticalAlign=top;aspect=fixed;align=center;pointerEvents=1;shape=mxgraph.cisco19.camera;fillColor=#005073;strokeColor=none;fontFamily=Helvetica;fontSize=11;fontColor=default;" vertex="1" parent="1">
          <mxGeometry x="32.5" y="1859.75" width="40.5" height="22.5" as="geometry" />
        </mxCell>
        <mxCell id="hto62bo64SFIwnMWw7BM-111" value="" style="group;spacing=0;align=center;" vertex="1" connectable="0" parent="1">
          <mxGeometry x="175.5" y="1793.25" width="102" height="34" as="geometry" />
        </mxCell>
        <mxCell id="hto62bo64SFIwnMWw7BM-112" value="VMS" style="rounded=1;whiteSpace=wrap;html=1;fontFamily=Helvetica;fontSize=11;fontColor=default;labelPosition=center;verticalLabelPosition=middle;align=center;verticalAlign=middle;spacingRight=11;" vertex="1" parent="hto62bo64SFIwnMWw7BM-111">
          <mxGeometry width="102" height="34" as="geometry" />
        </mxCell>
        <mxCell id="hto62bo64SFIwnMWw7BM-120" style="edgeStyle=orthogonalEdgeStyle;shape=connector;rounded=0;orthogonalLoop=1;jettySize=auto;html=1;exitX=0;exitY=0.5;exitDx=0;exitDy=0;entryX=1;entryY=0.5;entryDx=0;entryDy=0;entryPerimeter=0;labelBackgroundColor=default;strokeColor=#006EAF;align=center;verticalAlign=middle;fontFamily=Helvetica;fontSize=11;fontColor=default;endArrow=none;endFill=0;fillColor=#1ba1e2;strokeWidth=4;" edge="1" parent="1" source="hto62bo64SFIwnMWw7BM-112" target="hto62bo64SFIwnMWw7BM-109">
          <mxGeometry relative="1" as="geometry" />
        </mxCell>
        <mxCell id="hto62bo64SFIwnMWw7BM-121" style="edgeStyle=orthogonalEdgeStyle;shape=connector;rounded=0;orthogonalLoop=1;jettySize=auto;html=1;exitX=0;exitY=0.5;exitDx=0;exitDy=0;entryX=1;entryY=0.5;entryDx=0;entryDy=0;entryPerimeter=0;labelBackgroundColor=default;strokeColor=#006EAF;align=center;verticalAlign=middle;fontFamily=Helvetica;fontSize=11;fontColor=default;endArrow=none;endFill=0;fillColor=#1ba1e2;strokeWidth=4;" edge="1" parent="1" source="hto62bo64SFIwnMWw7BM-112" target="hto62bo64SFIwnMWw7BM-110">
          <mxGeometry relative="1" as="geometry" />
        </mxCell>
        <mxCell id="hto62bo64SFIwnMWw7BM-127" value="RTSP" style="edgeLabel;html=1;align=center;verticalAlign=middle;resizable=0;points=[];fontSize=11;fontFamily=Helvetica;fontColor=default;" vertex="1" connectable="0" parent="hto62bo64SFIwnMWw7BM-121">
          <mxGeometry x="-0.5828" relative="1" as="geometry">
            <mxPoint x="5" as="offset" />
          </mxGeometry>
        </mxCell>
        <mxCell id="hto62bo64SFIwnMWw7BM-122" value="" style="rounded=0;whiteSpace=wrap;html=1;fontFamily=Helvetica;fontSize=11;fontColor=#000000;fillColor=#fa6800;strokeColor=#C73500;" vertex="1" parent="1">
          <mxGeometry x="407" y="1736" width="210" height="150" as="geometry" />
        </mxCell>
        <mxCell id="hto62bo64SFIwnMWw7BM-123" value="AGIL ERS" style="rounded=1;whiteSpace=wrap;html=1;fontFamily=Helvetica;fontSize=11;fillColor=#fa6800;strokeColor=#C73500;fontColor=#FFFFFF;" vertex="1" parent="1">
          <mxGeometry x="407" y="1886" width="210" height="22" as="geometry" />
        </mxCell>
        <mxCell id="hto62bo64SFIwnMWw7BM-130" style="edgeStyle=orthogonalEdgeStyle;shape=connector;rounded=0;orthogonalLoop=1;jettySize=auto;html=1;exitX=0;exitY=0.5;exitDx=0;exitDy=0;entryX=1;entryY=0.5;entryDx=0;entryDy=0;labelBackgroundColor=default;strokeColor=#B20000;align=center;verticalAlign=top;fontFamily=Helvetica;fontSize=11;fontColor=#ffffff;endArrow=classicThin;endFill=1;fillColor=#e51400;strokeWidth=1;spacingTop=8;" edge="1" parent="1" source="hto62bo64SFIwnMWw7BM-124" target="hto62bo64SFIwnMWw7BM-112">
          <mxGeometry relative="1" as="geometry" />
        </mxCell>
        <mxCell id="hto62bo64SFIwnMWw7BM-131" value="(2)" style="edgeLabel;html=1;align=center;verticalAlign=middle;resizable=0;points=[];fontSize=11;fontFamily=Helvetica;fontColor=default;" vertex="1" connectable="0" parent="hto62bo64SFIwnMWw7BM-130">
          <mxGeometry x="0.0831" y="1" relative="1" as="geometry">
            <mxPoint as="offset" />
          </mxGeometry>
        </mxCell>
        <mxCell id="hto62bo64SFIwnMWw7BM-124" value="APP Server" style="rounded=1;whiteSpace=wrap;html=1;fontFamily=Helvetica;fontSize=11;fontColor=default;spacingLeft=58;" vertex="1" parent="1">
          <mxGeometry x="422" y="1772" width="171" height="78" as="geometry" />
        </mxCell>
        <mxCell id="hto62bo64SFIwnMWw7BM-125" value="Call Taker" style="shape=image;html=1;verticalAlign=bottom;verticalLabelPosition=top;labelBackgroundColor=#ffffff;imageAspect=0;aspect=fixed;image=https://cdn0.iconfinder.com/data/icons/google-material-design-3-0/48/ic_supervisor_account_48px-128.png;fontFamily=Helvetica;fontSize=11;fontColor=default;labelPosition=center;align=center;fontStyle=1;imageBackground=none;imageBorder=none;" vertex="1" parent="1">
          <mxGeometry x="472.5" y="1569" width="70" height="70" as="geometry" />
        </mxCell>
        <mxCell id="hto62bo64SFIwnMWw7BM-128" style="edgeStyle=orthogonalEdgeStyle;shape=connector;rounded=0;orthogonalLoop=1;jettySize=auto;html=1;exitX=0.5;exitY=1;exitDx=0;exitDy=0;exitPerimeter=0;labelBackgroundColor=default;strokeColor=#B20000;align=center;verticalAlign=top;fontFamily=Helvetica;fontSize=11;fontColor=#ffffff;endArrow=classicThin;endFill=1;fillColor=#e51400;strokeWidth=1;spacingTop=8;" edge="1" parent="1" source="hto62bo64SFIwnMWw7BM-126" target="hto62bo64SFIwnMWw7BM-124">
          <mxGeometry relative="1" as="geometry" />
        </mxCell>
        <mxCell id="hto62bo64SFIwnMWw7BM-129" value="(1)" style="edgeLabel;html=1;align=center;verticalAlign=middle;resizable=0;points=[];fontSize=11;fontFamily=Helvetica;fontColor=default;" vertex="1" connectable="0" parent="hto62bo64SFIwnMWw7BM-128">
          <mxGeometry x="-0.2811" y="2" relative="1" as="geometry">
            <mxPoint as="offset" />
          </mxGeometry>
        </mxCell>
        <mxCell id="hto62bo64SFIwnMWw7BM-126" value="ERS Client" style="verticalLabelPosition=middle;html=1;verticalAlign=middle;align=left;strokeColor=none;fillColor=#00BEF2;shape=mxgraph.azure.laptop;pointerEvents=1;fontFamily=Helvetica;fontSize=11;fontColor=default;labelPosition=right;" vertex="1" parent="1">
          <mxGeometry x="482.5" y="1636" width="50" height="30" as="geometry" />
        </mxCell>
        <mxCell id="hto62bo64SFIwnMWw7BM-132" value="" style="shape=partialRectangle;whiteSpace=wrap;html=1;bottom=0;right=0;fillColor=none;fontFamily=Helvetica;fontSize=11;fontColor=default;labelBackgroundColor=default;endArrow=none;rounded=0;strokeColor=#006EAF;endFill=0;strokeWidth=4;" vertex="1" parent="1">
          <mxGeometry x="221.55" y="1645" width="263.45" height="145.5" as="geometry" />
        </mxCell>
        <mxCell id="hto62bo64SFIwnMWw7BM-133" value="RTSP" style="text;html=1;strokeColor=none;fillColor=default;align=center;verticalAlign=middle;whiteSpace=wrap;rounded=0;fontSize=11;fontFamily=Helvetica;fontColor=default;" vertex="1" parent="1">
          <mxGeometry x="191" y="1696" width="60" height="30" as="geometry" />
        </mxCell>
        <mxCell id="hto62bo64SFIwnMWw7BM-134" value="(3)" style="text;html=1;strokeColor=none;fillColor=default;align=center;verticalAlign=middle;whiteSpace=wrap;rounded=0;fontSize=11;fontFamily=Helvetica;fontColor=default;" vertex="1" parent="1">
          <mxGeometry x="301" y="1632" width="23" height="30" as="geometry" />
        </mxCell>
        <mxCell id="hto62bo64SFIwnMWw7BM-135" value="Map Engine" style="rounded=1;whiteSpace=wrap;html=1;fontFamily=Helvetica;fontSize=11;fontColor=default;arcSize=25;spacingLeft=0;" vertex="1" parent="1">
          <mxGeometry x="721.19" y="534.5" width="57" height="45" as="geometry" />
        </mxCell>
        <mxCell id="hto62bo64SFIwnMWw7BM-136" style="edgeStyle=orthogonalEdgeStyle;shape=connector;rounded=0;orthogonalLoop=1;jettySize=auto;html=1;exitX=1;exitY=0.25;exitDx=0;exitDy=0;labelBackgroundColor=default;strokeColor=default;align=center;verticalAlign=middle;fontFamily=Helvetica;fontSize=11;fontColor=default;endArrow=oval;endFill=1;entryX=0.145;entryY=0.859;entryDx=0;entryDy=0;entryPerimeter=0;" edge="1" parent="1" source="hto62bo64SFIwnMWw7BM-21" target="hto62bo64SFIwnMWw7BM-40">
          <mxGeometry relative="1" as="geometry">
            <mxPoint x="578" y="403" as="targetPoint" />
          </mxGeometry>
        </mxCell>
        <mxCell id="hto62bo64SFIwnMWw7BM-44" style="edgeStyle=orthogonalEdgeStyle;shape=connector;rounded=0;orthogonalLoop=1;jettySize=auto;html=1;exitX=0.488;exitY=0.864;exitDx=0;exitDy=0;exitPerimeter=0;entryX=0.25;entryY=0;entryDx=0;entryDy=0;labelBackgroundColor=default;strokeColor=default;align=center;verticalAlign=middle;fontFamily=Helvetica;fontSize=11;fontColor=default;endArrow=none;endFill=0;startArrow=oval;startFill=1;" edge="1" parent="1" source="hto62bo64SFIwnMWw7BM-40" target="hto62bo64SFIwnMWw7BM-30">
          <mxGeometry relative="1" as="geometry" />
        </mxCell>
        <mxCell id="hto62bo64SFIwnMWw7BM-65" style="edgeStyle=orthogonalEdgeStyle;shape=connector;rounded=0;orthogonalLoop=1;jettySize=auto;html=1;exitX=0.496;exitY=0.906;exitDx=0;exitDy=0;exitPerimeter=0;entryX=0.5;entryY=0;entryDx=0;entryDy=0;labelBackgroundColor=default;strokeColor=default;align=center;verticalAlign=middle;fontFamily=Helvetica;fontSize=11;fontColor=default;endArrow=none;endFill=0;startArrow=oval;startFill=1;" edge="1" parent="1" source="hto62bo64SFIwnMWw7BM-43" target="hto62bo64SFIwnMWw7BM-30">
          <mxGeometry relative="1" as="geometry" />
        </mxCell>
        <mxCell id="hto62bo64SFIwnMWw7BM-137" value="" style="line;strokeWidth=2;html=1;fontFamily=Helvetica;fontSize=11;fontColor=#000000;connectable=0;dashed=1;dashPattern=8 8;strokeColor=#B09500;fillColor=#e3c800;direction=south;" vertex="1" parent="1">
          <mxGeometry x="520" y="95" width="10" height="555" as="geometry" />
        </mxCell>
        <mxCell id="hto62bo64SFIwnMWw7BM-138" value="" style="shape=singleArrow;direction=west;whiteSpace=wrap;html=1;fontFamily=Helvetica;fontSize=11;fontColor=#000000;arrowWidth=0.4647790995209107;arrowSize=0.6599801762312778;fillColor=#e3c800;strokeColor=#B09500;flipH=1;" vertex="1" parent="1">
          <mxGeometry x="524.5" y="82" width="31" height="41" as="geometry" />
        </mxCell>
        <mxCell id="hto62bo64SFIwnMWw7BM-139" value="ST Engineering ERS Solution" style="text;html=1;strokeColor=#C73500;fillColor=#fa6800;align=center;verticalAlign=middle;whiteSpace=wrap;rounded=0;fontSize=11;fontFamily=Helvetica;fontColor=#FFFFFF;" vertex="1" parent="1">
          <mxGeometry x="557" y="87.5" width="92" height="30" as="geometry" />
        </mxCell>
        <mxCell id="hto62bo64SFIwnMWw7BM-141" value="CMS" style="rounded=1;whiteSpace=wrap;html=1;fontFamily=Helvetica;fontSize=11;fillColor=#75A15C;strokeColor=#82b366;fontColor=#FFFFFF;verticalAlign=bottom;" vertex="1" parent="1">
          <mxGeometry x="275" y="948" width="129.5" height="147" as="geometry" />
        </mxCell>
        <mxCell id="hto62bo64SFIwnMWw7BM-142" value="Call Taker" style="shape=image;html=1;verticalAlign=bottom;verticalLabelPosition=top;labelBackgroundColor=#ffffff;imageAspect=0;aspect=fixed;image=https://cdn0.iconfinder.com/data/icons/google-material-design-3-0/48/ic_supervisor_account_48px-128.png;fontFamily=Helvetica;fontSize=11;fontColor=default;labelPosition=center;align=center;fontStyle=1;imageBackground=none;imageBorder=none;" vertex="1" parent="1">
          <mxGeometry x="434" y="793" width="70" height="70" as="geometry" />
        </mxCell>
        <mxCell id="hto62bo64SFIwnMWw7BM-143" value="CMS Client&lt;br&gt;&amp;amp;&lt;br&gt;ERS Client" style="verticalLabelPosition=middle;html=1;verticalAlign=middle;align=left;strokeColor=none;fillColor=#00BEF2;shape=mxgraph.azure.laptop;pointerEvents=1;fontFamily=Helvetica;fontSize=11;fontColor=default;labelPosition=right;" vertex="1" parent="1">
          <mxGeometry x="444" y="860" width="50" height="30" as="geometry" />
        </mxCell>
        <mxCell id="hto62bo64SFIwnMWw7BM-144" value="AGIL ERS" style="rounded=1;whiteSpace=wrap;html=1;fontFamily=Helvetica;fontSize=11;fillColor=#fa6800;strokeColor=#C73500;fontColor=#FFFFFF;" vertex="1" parent="1">
          <mxGeometry x="533.5" y="949" width="153" height="145" as="geometry" />
        </mxCell>
        <mxCell id="hto62bo64SFIwnMWw7BM-145" value="Caller" style="shape=image;html=1;verticalAlign=bottom;verticalLabelPosition=top;labelBackgroundColor=#ffffff;imageAspect=0;aspect=fixed;image=https://cdn0.iconfinder.com/data/icons/google-material-design-3-0/48/ic_supervisor_account_48px-128.png;fontFamily=Helvetica;fontSize=11;fontColor=default;labelPosition=center;align=center;fontStyle=1;imageBackground=none;imageBorder=none;" vertex="1" parent="1">
          <mxGeometry x="78" y="930" width="70" height="70" as="geometry" />
        </mxCell>
        <mxCell id="hto62bo64SFIwnMWw7BM-146" value="ACD" style="rounded=1;whiteSpace=wrap;html=1;fontFamily=Helvetica;fontSize=11;fontColor=default;flipV=1;" vertex="1" parent="1">
          <mxGeometry x="279.75" y="1011" width="120" height="27" as="geometry" />
        </mxCell>
        <mxCell id="hto62bo64SFIwnMWw7BM-147" value="Mobile" style="verticalLabelPosition=bottom;verticalAlign=top;html=1;shadow=0;dashed=0;strokeWidth=1;shape=mxgraph.android.phone2;strokeColor=none;fillColor=#505050;fontColor=default;gradientColor=none;gradientDirection=north;sketch=0;flipH=0;" vertex="1" parent="1">
          <mxGeometry x="100.99999999999996" y="996.1199999999999" width="29.1" height="56.75" as="geometry" />
        </mxCell>
        <mxCell id="hto62bo64SFIwnMWw7BM-148" style="edgeStyle=orthogonalEdgeStyle;shape=connector;rounded=0;orthogonalLoop=1;jettySize=auto;html=1;exitX=0;exitY=0.5;exitDx=0;exitDy=0;entryX=0.927;entryY=0.499;entryDx=0;entryDy=0;entryPerimeter=0;labelBackgroundColor=default;strokeColor=default;align=center;verticalAlign=middle;fontFamily=Helvetica;fontSize=11;fontColor=default;endArrow=none;endFill=0;startArrow=classicThin;startFill=1;" edge="1" parent="1" source="hto62bo64SFIwnMWw7BM-146" target="hto62bo64SFIwnMWw7BM-147">
          <mxGeometry relative="1" as="geometry" />
        </mxCell>
        <mxCell id="hto62bo64SFIwnMWw7BM-149" value="(1)" style="edgeLabel;html=1;align=center;verticalAlign=middle;resizable=0;points=[];fontSize=11;fontFamily=Helvetica;fontColor=default;" vertex="1" connectable="0" parent="hto62bo64SFIwnMWw7BM-148">
          <mxGeometry x="-0.0264" y="2" relative="1" as="geometry">
            <mxPoint x="1" as="offset" />
          </mxGeometry>
        </mxCell>
        <mxCell id="hto62bo64SFIwnMWw7BM-150" style="edgeStyle=orthogonalEdgeStyle;shape=connector;rounded=0;orthogonalLoop=1;jettySize=auto;html=1;exitX=1;exitY=0.75;exitDx=0;exitDy=0;entryX=0;entryY=0.75;entryDx=0;entryDy=0;labelBackgroundColor=default;strokeColor=default;align=center;verticalAlign=middle;fontFamily=Helvetica;fontSize=11;fontColor=default;endArrow=openThin;endFill=0;" edge="1" parent="1" source="hto62bo64SFIwnMWw7BM-141" target="hto62bo64SFIwnMWw7BM-144">
          <mxGeometry relative="1" as="geometry" />
        </mxCell>
        <mxCell id="hto62bo64SFIwnMWw7BM-154" value="(3)" style="edgeLabel;html=1;align=center;verticalAlign=middle;resizable=0;points=[];fontSize=11;fontFamily=Helvetica;fontColor=default;" vertex="1" connectable="0" parent="hto62bo64SFIwnMWw7BM-150">
          <mxGeometry x="-0.069" relative="1" as="geometry">
            <mxPoint as="offset" />
          </mxGeometry>
        </mxCell>
        <mxCell id="hto62bo64SFIwnMWw7BM-151" style="edgeStyle=orthogonalEdgeStyle;shape=connector;rounded=0;orthogonalLoop=1;jettySize=auto;html=1;exitX=1;exitY=0.5;exitDx=0;exitDy=0;entryX=0.331;entryY=0.985;entryDx=0;entryDy=0;entryPerimeter=0;labelBackgroundColor=default;strokeColor=default;align=center;verticalAlign=middle;fontFamily=Helvetica;fontSize=11;fontColor=default;endArrow=openThin;endFill=0;" edge="1" parent="1" source="hto62bo64SFIwnMWw7BM-146" target="hto62bo64SFIwnMWw7BM-143">
          <mxGeometry relative="1" as="geometry" />
        </mxCell>
        <mxCell id="hto62bo64SFIwnMWw7BM-153" value="(2)" style="edgeLabel;html=1;align=center;verticalAlign=middle;resizable=0;points=[];fontSize=11;fontFamily=Helvetica;fontColor=default;" vertex="1" connectable="0" parent="hto62bo64SFIwnMWw7BM-151">
          <mxGeometry x="0.2152" y="-1" relative="1" as="geometry">
            <mxPoint as="offset" />
          </mxGeometry>
        </mxCell>
        <mxCell id="hto62bo64SFIwnMWw7BM-152" style="edgeStyle=orthogonalEdgeStyle;shape=connector;rounded=0;orthogonalLoop=1;jettySize=auto;html=1;exitX=0.5;exitY=0;exitDx=0;exitDy=0;entryX=0.702;entryY=0.992;entryDx=0;entryDy=0;entryPerimeter=0;labelBackgroundColor=default;strokeColor=default;align=center;verticalAlign=middle;fontFamily=Helvetica;fontSize=11;fontColor=default;endArrow=openThin;endFill=0;" edge="1" parent="1" source="hto62bo64SFIwnMWw7BM-144" target="hto62bo64SFIwnMWw7BM-143">
          <mxGeometry relative="1" as="geometry" />
        </mxCell>
        <mxCell id="hto62bo64SFIwnMWw7BM-155" value="(4)" style="edgeLabel;html=1;align=center;verticalAlign=middle;resizable=0;points=[];fontSize=11;fontFamily=Helvetica;fontColor=default;" vertex="1" connectable="0" parent="hto62bo64SFIwnMWw7BM-152">
          <mxGeometry x="0.1264" y="1" relative="1" as="geometry">
            <mxPoint as="offset" />
          </mxGeometry>
        </mxCell>
        <mxCell id="hto62bo64SFIwnMWw7BM-156" value="Emergency Call &lt;br&gt;Center" style="rounded=0;whiteSpace=wrap;html=1;fontFamily=Helvetica;fontSize=14;fillColor=#eeeeee;strokeColor=#36393d;verticalAlign=top;fontStyle=1;align=left;fontColor=#999999;spacingLeft=4;" vertex="1" parent="1">
          <mxGeometry x="1002" y="543" width="585" height="360" as="geometry" />
        </mxCell>
        <mxCell id="hto62bo64SFIwnMWw7BM-162" style="edgeStyle=orthogonalEdgeStyle;shape=connector;rounded=0;orthogonalLoop=1;jettySize=auto;html=1;exitX=1;exitY=0.5;exitDx=0;exitDy=0;entryX=0;entryY=0.5;entryDx=0;entryDy=0;labelBackgroundColor=default;strokeColor=default;align=center;verticalAlign=middle;fontFamily=Helvetica;fontSize=11;fontColor=default;endArrow=none;endFill=0;" edge="1" parent="1" source="hto62bo64SFIwnMWw7BM-157" target="hto62bo64SFIwnMWw7BM-158">
          <mxGeometry relative="1" as="geometry" />
        </mxCell>
        <mxCell id="hto62bo64SFIwnMWw7BM-157" value="CMS" style="rounded=1;whiteSpace=wrap;html=1;fontFamily=Helvetica;fontSize=11;fillColor=#75A15C;strokeColor=#82b366;fontColor=#FFFFFF;" vertex="1" parent="1">
          <mxGeometry x="1068" y="693" width="97" height="125" as="geometry" />
        </mxCell>
        <mxCell id="hto62bo64SFIwnMWw7BM-158" value="AGIL ERS" style="rounded=1;whiteSpace=wrap;html=1;fontFamily=Helvetica;fontSize=11;fillColor=#fa6800;strokeColor=#C73500;fontColor=#FFFFFF;" vertex="1" parent="1">
          <mxGeometry x="1245" y="693" width="206" height="140" as="geometry" />
        </mxCell>
        <mxCell id="hto62bo64SFIwnMWw7BM-159" value="" style="group" vertex="1" connectable="0" parent="1">
          <mxGeometry x="1063" y="846" width="99" height="34" as="geometry" />
        </mxCell>
        <mxCell id="hto62bo64SFIwnMWw7BM-160" value="VMS" style="rounded=1;whiteSpace=wrap;html=1;fontFamily=Helvetica;fontSize=11;fontColor=default;labelPosition=center;verticalLabelPosition=middle;align=right;verticalAlign=middle;spacingRight=11;" vertex="1" parent="hto62bo64SFIwnMWw7BM-159">
          <mxGeometry width="99" height="34" as="geometry" />
        </mxCell>
        <mxCell id="hto62bo64SFIwnMWw7BM-161" value="" style="points=[[0,0.5,0],[0.19,0.02,0],[0.59,0,0],[0.985,0.02,0],[1,0.5,0],[0.985,0.98,0],[0.59,1,0],[0.19,0.98,0]];verticalLabelPosition=bottom;sketch=0;html=1;verticalAlign=top;aspect=fixed;align=center;pointerEvents=1;shape=mxgraph.cisco19.camera;fillColor=#005073;strokeColor=none;fontFamily=Helvetica;fontSize=11;fontColor=default;" vertex="1" parent="hto62bo64SFIwnMWw7BM-159">
          <mxGeometry x="4.25" y="5.75" width="40.5" height="22.5" as="geometry" />
        </mxCell>
        <mxCell id="hto62bo64SFIwnMWw7BM-163" style="edgeStyle=orthogonalEdgeStyle;shape=connector;rounded=0;orthogonalLoop=1;jettySize=auto;html=1;exitX=1;exitY=0.5;exitDx=0;exitDy=0;entryX=0;entryY=0.75;entryDx=0;entryDy=0;labelBackgroundColor=default;strokeColor=default;align=center;verticalAlign=middle;fontFamily=Helvetica;fontSize=11;fontColor=default;endArrow=none;endFill=0;" edge="1" parent="1" source="hto62bo64SFIwnMWw7BM-160" target="hto62bo64SFIwnMWw7BM-158">
          <mxGeometry relative="1" as="geometry" />
        </mxCell>
        <mxCell id="hto62bo64SFIwnMWw7BM-164" value="Call Taker" style="shape=image;html=1;verticalAlign=bottom;verticalLabelPosition=top;labelBackgroundColor=#ffffff;imageAspect=0;aspect=fixed;image=https://cdn0.iconfinder.com/data/icons/google-material-design-3-0/48/ic_supervisor_account_48px-128.png;fontFamily=Helvetica;fontSize=11;fontColor=default;labelPosition=center;align=center;fontStyle=1;imageBackground=none;imageBorder=none;" vertex="1" parent="1">
          <mxGeometry x="1255" y="607" width="70" height="70" as="geometry" />
        </mxCell>
        <mxCell id="hto62bo64SFIwnMWw7BM-165" value="Dispatcher" style="shape=image;html=1;verticalAlign=bottom;verticalLabelPosition=top;labelBackgroundColor=#ffffff;imageAspect=0;aspect=fixed;image=https://cdn0.iconfinder.com/data/icons/google-material-design-3-0/48/ic_supervisor_account_48px-128.png;fontFamily=Helvetica;fontSize=11;fontColor=default;labelPosition=center;align=center;fontStyle=1;imageBackground=none;imageBorder=none;" vertex="1" parent="1">
          <mxGeometry x="1347.5" y="607" width="70" height="70" as="geometry" />
        </mxCell>
        <mxCell id="hto62bo64SFIwnMWw7BM-166" value="" style="shape=image;html=1;verticalAlign=top;verticalLabelPosition=bottom;labelBackgroundColor=#ffffff;imageAspect=0;aspect=fixed;image=https://cdn4.iconfinder.com/data/icons/transportation-190/1000/patrol_car_automobile_car_cop_police_patrol_patrolman-128.png;fontFamily=Helvetica;fontSize=11;fontColor=default;imageBackground=none;" vertex="1" parent="1">
          <mxGeometry x="1399" y="393.75" width="105" height="105" as="geometry" />
        </mxCell>
        <mxCell id="hto62bo64SFIwnMWw7BM-167" value="" style="shape=image;html=1;verticalAlign=top;verticalLabelPosition=bottom;labelBackgroundColor=#ffffff;imageAspect=0;aspect=fixed;image=https://cdn4.iconfinder.com/data/icons/transportation-190/1000/patrol_car_automobile_car_cop_police_patrol_patrolman-128.png;fontFamily=Helvetica;fontSize=11;fontColor=default;" vertex="1" parent="1">
          <mxGeometry x="1466" y="393.75" width="105" height="105" as="geometry" />
        </mxCell>
        <mxCell id="hto62bo64SFIwnMWw7BM-168" value="" style="shape=image;html=1;verticalAlign=top;verticalLabelPosition=bottom;labelBackgroundColor=#ffffff;imageAspect=0;aspect=fixed;image=https://cdn2.iconfinder.com/data/icons/maki/100/police-128.png;fontFamily=Helvetica;fontSize=11;fontColor=default;" vertex="1" parent="1">
          <mxGeometry x="1298" y="403.75" width="70" height="70" as="geometry" />
        </mxCell>
        <mxCell id="hto62bo64SFIwnMWw7BM-169" value="" style="shape=image;html=1;verticalAlign=top;verticalLabelPosition=bottom;labelBackgroundColor=#ffffff;imageAspect=0;aspect=fixed;image=https://cdn2.iconfinder.com/data/icons/maki/100/police-128.png;fontFamily=Helvetica;fontSize=11;fontColor=default;" vertex="1" parent="1">
          <mxGeometry x="1328" y="403.75" width="70" height="70" as="geometry" />
        </mxCell>
        <mxCell id="hto62bo64SFIwnMWw7BM-170" value="Mobile Responder" style="rounded=1;whiteSpace=wrap;html=1;verticalAlign=bottom;labelPosition=center;verticalLabelPosition=top;align=center;fontStyle=1;fillColor=none;strokeColor=none;" vertex="1" parent="1">
          <mxGeometry x="1276" y="398.75" width="260" height="5" as="geometry" />
        </mxCell>
        <mxCell id="hto62bo64SFIwnMWw7BM-172" style="edgeStyle=orthogonalEdgeStyle;shape=connector;rounded=0;orthogonalLoop=1;jettySize=auto;html=1;exitX=0.5;exitY=1;exitDx=0;exitDy=0;entryX=1;entryY=0.5;entryDx=0;entryDy=0;labelBackgroundColor=default;strokeColor=default;align=center;verticalAlign=middle;fontFamily=Helvetica;fontSize=11;fontColor=default;endArrow=none;endFill=0;" edge="1" parent="1" source="hto62bo64SFIwnMWw7BM-171" target="hto62bo64SFIwnMWw7BM-158">
          <mxGeometry relative="1" as="geometry" />
        </mxCell>
        <mxCell id="hto62bo64SFIwnMWw7BM-171" value="AVL Unit" style="ellipse;whiteSpace=wrap;html=1;aspect=fixed;fontFamily=Helvetica;fontSize=11;fontColor=default;" vertex="1" parent="1">
          <mxGeometry x="1489" y="469.25" width="37" height="37" as="geometry" />
        </mxCell>
      </root>
    </mxGraphModel>
  </diagram>
</mxfile>
